# xmcd CD database file
#
# Track frame offsets:
#	150
#	12991
#	27693
#	51376
#	69465
#	94014
#	113981
#	126893
#	143097
#	159384
#	173803
#	191625
#	217204
#
# Disc length: 3124 seconds
#
# Revision: 0
# Processed by: cddbd v1.5.2PL0 Copyright (c) Steve Scherf et al.
# Submitted via: CDex 1.70beta2
#
DISCID=c10c320d
DTITLE=Quincy Jones - The Q in Jazz CD1
DYEAR=2007
DGENRE=Jazz
TTITLE0=Eli, Eli - Part 1
TTITLE1=Eli, Eli - Part 2
TTITLE2=Mau Mau
TTITLE3=Up in Quincy's Room
TTITLE4=Stockholm Sweetnin'
TTITLE5='Scuse these Blues
TTITLE6=Purple Shades
TTITLE7=La Rose noire
TTITLE8=Deltitnu
TTITLE9=Bum's Rush
TTITLE10=Evening in Paris
TTITLE11=Jones' Bones
TTITLE12=Bumpkins
EXTD=YEAR: 2007
EXTT0=
EXTT1=
EXTT2=
EXTT3=
EXTT4=
EXTT5=
EXTT6=
EXTT7=
EXTT8=
EXTT9=
EXTT10=
EXTT11=
EXTT12=
PLAYORDER=
